<svg width="744" height="760" xmlns="http://www.w3.org/2000/svg">
    <g id="imagebot_1" label="Layer 1">
        <path label="Layer 1" id="imagebot_18" d="M 272.19440000679015 73.77131023162842 L 288.64719000679014 95.66842023162842 L 265.3455000067902 84.73256023162841 L 252.51971000679015 109.69346023162842 L 254.26372000679015 80.54620023162842 L 229.88442000679015 74.07600023162841 L 254.26372000679015 66.99720023162841 L 252.02221000679017 38.03751023162842 L 265.34525000679014 62.810140231628424 L 288.3394900067902 51.38210023162842 L 272.19440000679015 73.77131023162842 z" fill="#acece5" fill-rule="evenodd"/>
        <path label="Layer 1" id="imagebot_15" d="M525.76,668.26L552.891,699.314L514.466,683.805L493.316,719.204L496.1919,677.868L455.9899,668.6921L496.1919,658.6531L492.4956,617.5831L514.4656,652.7151L552.3836,636.5081L525.76,668.26z" transform="translate(1.95313, -1.95313) matrix(0.60642, 0, 0, 0.67832, 347.325, -368.425)" fill="#acece5" fill-rule="evenodd"/>
        <title label="Layer 1"/>
        <path label="Layer 1" d="M525.76,668.26L552.891,699.314L514.466,683.805L493.316,719.204L496.1919,677.868L455.9899,668.6921L496.1919,658.6531L492.4956,617.5831L514.4656,652.7151L552.3836,636.5081L525.76,668.26z" transform="translate(1.95313, -1.95313) matrix(0.27897, -0.19543, 0.23908, 0.22803, 228.404, 76.1687)" fill="#acece5" fill-rule="evenodd" id="imagebot_5"/>
        <path transform="rotate(315.803, 412.266, 79.8655) translate(0, 1)" id="imagebot_22" label="Layer 1" d="M 425.19440000679015 78.77131023162842 L 441.64719000679014 100.66842023162842 L 418.3455000067902 89.73256023162841 L 405.51971000679015 114.69346023162842 L 407.26372000679015 85.54620023162842 L 382.88442000679015 79.07600023162841 L 407.26372000679015 71.99720023162841 L 405.02221000679015 43.03751023162842 L 418.34525000679014 67.81014023162842 L 441.3394900067902 56.38210023162842 L 425.19440000679015 78.77131023162842 z" fill="#acece5" fill-rule="evenodd"/>
        <path transform="rotate(10.2497, 132.961, 110.532) matrix(0.27897, -0.19543, 0.23908, 0.22803, -173.424, 24.1999)" id="imagebot_24" label="Layer 1" d="M 471.41371916783953 754.8852731444899 L 501.1749418925782 792.1796893331598 L 453.9252959395152 778.0095451814508 L 420.04888379609963 829.8497294591075 L 431.19669662570277 773.2235392634346 L 380.499188728207 767.968471283715 L 434.63820561100067 747.1404920429146 L 437.1817044412886 692.0525391580168 L 459.49317105055616 735.8069860666477 L 511.76326299038203 707.0154168305327 L 471.41371916783953 754.8852731444899 z" fill="#acece5" fill-rule="evenodd"/>
        <path transform="rotate(94.2623, 40.9388, 51.9153) translate(1, -12)" id="imagebot_29" label="Layer 1" d="M 42.45837741526066 61.17623598801954 L 54.25877100636067 62.943725513905875 L 42.90370127586817 66.89082894293927 L 44.92090179258466 79.01701593893705 L 37.774202349093414 69.09393454352042 L 27.220658448222213 74.82083073339916 L 34.15855811906982 64.7407896076598 L 25.618890745419133 56.154042149644866 L 37.053464995178416 59.84747464913438 L 42.329254673806915 48.813536137033736 L 42.45837741526066 61.17623598801954 z" fill="#acece5" fill-rule="evenodd"/>
    </g>
</svg>