<svg width="744" height="760" xmlns="http://www.w3.org/2000/svg">

 <g id="imagebot_1" label="Layer 1">
  <rect label="Layer 1" id="imagebot_20" ry="0" height="760.03" width="743.69" y="3.5726" x="0" fill="#00001a" fill-rule="evenodd" transform="translate(-1) matrix(1, 0, 0, 1, 0, -3.5726)"/>
  <path label="Layer 1" id="imagebot_19" d="M 105.97438000679016 379.7542702316284 C 36.83138000679016 470.5002702316284 49.58438000679016 598.0842702316285 135.65638000679016 667.0842702316285 C 217.67638000679017 732.8332702316284 337.14638000679014 722.0102702316284 411.83638000679014 645.3662702316284 C 337.80138000679017 671.2722702316285 253.18638000679016 660.0502702316285 188.26638000679017 608.0052702316284 C 118.28638000679017 551.9052702316284 89.58638000679016 463.14527023162844 105.97638000679017 379.7552702316284 L 105.97438000679016 379.7542702316284 z" fill="#acece5" fill-rule="evenodd"/>
  <path label="Layer 1" id="imagebot_18" d="M 272.19440000679015 73.77131023162842 L 288.64719000679014 95.66842023162842 L 265.3455000067902 84.73256023162841 L 252.51971000679015 109.69346023162842 L 254.26372000679015 80.54620023162842 L 229.88442000679015 74.07600023162841 L 254.26372000679015 66.99720023162841 L 252.02221000679017 38.03751023162842 L 265.34525000679014 62.810140231628424 L 288.3394900067902 51.38210023162842 L 272.19440000679015 73.77131023162842 z" fill="#acece5" fill-rule="evenodd"/>
  <path label="Layer 1" id="imagebot_17" d="M 236.0144977900386 207.8339255934954 L 251.0076231699884 209.61295788200198 L 236.58030912719664 213.58583825469015 L 239.1432863728404 225.79121649676563 L 230.06296545118096 215.80333145112547 L 216.65403924147336 221.56762769475432 L 225.46906721791174 211.42175787797424 L 214.61889492088108 202.77893382876215 L 229.1472243422225 206.4964866491765 L 235.85043941036906 195.39048992618024 L 236.0144977900386 207.8339255934954 z" fill="#acece5" fill-rule="evenodd"/>
  <path label="Layer 1" id="imagebot_16" d="M525.76,668.26L552.891,699.314L514.466,683.805L493.316,719.204L496.1919,677.868L455.9899,668.6921L496.1919,658.6531L492.4956,617.5831L514.4656,652.7151L552.3836,636.5081L525.76,668.26z" transform="translate(1.95313, -1.95313) matrix(0.29718, 0, 0, 0.49067, 486.947, 71.8953)" fill="#acece5" fill-rule="evenodd"/>
  <path label="Layer 1" id="imagebot_15" d="M525.76,668.26L552.891,699.314L514.466,683.805L493.316,719.204L496.1919,677.868L455.9899,668.6921L496.1919,658.6531L492.4956,617.5831L514.4656,652.7151L552.3836,636.5081L525.76,668.26z" transform="translate(1.95313, -1.95313) matrix(0.60642, 0, 0, 0.67832, 347.325, -368.425)" fill="#acece5" fill-rule="evenodd"/>
  <title label="Layer 1"/>
  <path label="Layer 1" d="M 272.19440000679015 73.77131023162842 L 288.64719000679014 95.66842023162842 L 265.3455000067902 84.73256023162841 L 252.51971000679015 109.69346023162842 L 254.26372000679015 80.54620023162842 L 229.88442000679015 74.07600023162841 L 254.26372000679015 66.99720023162841 L 252.02221000679017 38.03751023162842 L 265.34525000679014 62.810140231628424 L 288.3394900067902 51.38210023162842 L 272.19440000679015 73.77131023162842 z" fill="#acece5" fill-rule="evenodd" id="imagebot_14"/>
  <path label="Layer 1" d="M 539.7725200067902 530.8025602316284 L 556.2253200067902 552.6996702316284 L 532.9236300067902 541.7638102316284 L 520.0978300067901 566.7247102316284 L 521.8418500067902 537.5774502316284 L 497.46254000679016 531.1072502316284 L 521.8418500067902 524.0284502316284 L 519.6003300067902 495.0687602316284 L 532.9233700067902 519.8413902316285 L 555.9176100067901 508.41335023162844 L 539.7725200067902 530.8025602316284 z" fill="#acece5" fill-rule="evenodd" id="imagebot_13"/>
  <path label="Layer 1" d="M 369.85065000679015 413.61506023162843 L 386.30344000679014 435.51217023162843 L 363.0017500067902 424.57631023162844 L 350.17596000679015 449.5372102316284 L 351.91997000679015 420.3899502316284 L 327.54067000679015 413.9197502316284 L 351.91997000679015 406.8409502316284 L 349.67846000679015 377.8812602316284 L 363.00150000679014 402.6538902316284 L 385.9957400067902 391.22585023162844 L 369.85065000679015 413.61506023162843 z" fill="#acece5" fill-rule="evenodd" id="imagebot_12"/>
  <path label="Layer 1" d="M525.76,668.26L552.891,699.314L514.466,683.805L493.316,719.204L496.1919,677.868L455.9899,668.6921L496.1919,658.6531L492.4956,617.5831L514.4656,652.7151L552.3836,636.5081L525.76,668.26z" transform="translate(1.95313, -1.95313) matrix(0.27897, -0.19543, 0.23908, 0.22803, 228.404, 76.1687)" fill="#acece5" fill-rule="evenodd" id="imagebot_5"/>
  <path label="Layer 1" d="M525.76,668.26L552.891,699.314L514.466,683.805L493.316,719.204L496.1919,677.868L455.9899,668.6921L496.1919,658.6531L492.4956,617.5831L514.4656,652.7151L552.3836,636.5081L525.76,668.26z" transform="translate(1.95313, -1.95313) matrix(0.60642, 0, 0, 0.67832, 83.6534, -221.941)" fill="#acece5" fill-rule="evenodd" id="imagebot_4"/>
  <path label="Layer 1" d="M525.76,668.26L552.891,699.314L514.466,683.805L493.316,719.204L496.1919,677.868L455.9899,668.6921L496.1919,658.6531L492.4956,617.5831L514.4656,652.7151L552.3836,636.5081L525.76,668.26z" transform="translate(1.95313, -1.95313) matrix(0.60642, 0, 0, 0.67832, 302.403, -186.785)" fill="#acece5" fill-rule="evenodd" id="imagebot_3"/>
  <path label="Layer 1" d="M525.76,668.26L552.891,699.314L514.466,683.805L493.316,719.204L496.1919,677.868L455.9899,668.6921L496.1919,658.6531L492.4956,617.5831L514.4656,652.7151L552.3836,636.5081L525.76,668.26z" transform="translate(1.95313, -1.95313) matrix(0.27897, -0.19543, 0.23908, 0.22803, 376.841, 554.684)" fill="#acece5" fill-rule="evenodd" id="imagebot_2"/>
  <path transform="rotate(33.8097, 582.266, 671.865)" id="imagebot_21" label="Layer 1" d="M 595.1944000067901 671.7713102316284 L 611.6471900067902 693.6684202316285 L 588.3455000067902 682.7325602316284 L 575.5197100067901 707.6934602316285 L 577.2637200067902 678.5462002316284 L 552.8844200067902 672.0760002316284 L 577.2637200067902 664.9972002316284 L 575.0222100067901 636.0375102316284 L 588.3452500067901 660.8101402316285 L 611.3394900067901 649.3821002316284 L 595.1944000067901 671.7713102316284 z" fill="#acece5" fill-rule="evenodd"/>
  <path transform="rotate(315.803, 412.266, 79.8655) translate(0, 1)" id="imagebot_22" label="Layer 1" d="M 425.19440000679015 78.77131023162842 L 441.64719000679014 100.66842023162842 L 418.3455000067902 89.73256023162841 L 405.51971000679015 114.69346023162842 L 407.26372000679015 85.54620023162842 L 382.88442000679015 79.07600023162841 L 407.26372000679015 71.99720023162841 L 405.02221000679015 43.03751023162842 L 418.34525000679014 67.81014023162842 L 441.3394900067902 56.38210023162842 L 425.19440000679015 78.77131023162842 z" fill="#acece5" fill-rule="evenodd"/>
  <path id="imagebot_23" label="Layer 1" d="M525.76,668.26L552.891,699.314L514.466,683.805L493.316,719.204L496.1919,677.868L455.9899,668.6921L496.1919,658.6531L492.4956,617.5831L514.4656,652.7151L552.3836,636.5081L525.76,668.26z" transform="translate(260, 142) matrix(0.27897, -0.19543, 0.23908, 0.22803, -70.4244, 158.2)" fill="#acece5" fill-rule="evenodd"/>
  <path transform="rotate(10.2497, 132.961, 110.532) matrix(0.27897, -0.19543, 0.23908, 0.22803, -173.424, 24.1999)" id="imagebot_24" label="Layer 1" d="M 471.41371916783953 754.8852731444899 L 501.1749418925782 792.1796893331598 L 453.9252959395152 778.0095451814508 L 420.04888379609963 829.8497294591075 L 431.19669662570277 773.2235392634346 L 380.499188728207 767.968471283715 L 434.63820561100067 747.1404920429146 L 437.1817044412886 692.0525391580168 L 459.49317105055616 735.8069860666477 L 511.76326299038203 707.0154168305327 L 471.41371916783953 754.8852731444899 z" fill="#acece5" fill-rule="evenodd"/>
  <path id="imagebot_25" transform="rotate(315.803, 100.266, 235.866) matrix(1, 0, 0, 1, -312, 157)" label="Layer 1" d="M 425.19440000679015 78.77131023162842 L 441.64719000679014 100.66842023162842 L 418.3455000067902 89.73256023162841 L 405.51971000679015 114.69346023162842 L 407.26372000679015 85.54620023162842 L 382.88442000679015 79.07600023162841 L 407.26372000679015 71.99720023162841 L 405.02221000679015 43.03751023162842 L 418.34525000679014 67.81014023162842 L 441.3394900067902 56.38210023162842 L 425.19440000679015 78.77131023162842 z" fill="#acece5" fill-rule="evenodd"/>
  <path id="imagebot_26" label="Layer 1" d="M 699.1454711723327 489.83730041325094 L 707.2082616700529 505.074566454947 L 695.789120286584 497.46476549401876 L 689.5037633507252 514.8339926663637 L 690.3584233040035 494.5516577304602 L 678.4111930659235 490.0493189183265 L 690.3584233040035 485.1234828330368 L 689.2599568812132 464.97166611594855 L 695.7890014145851 482.20988439948263 L 707.0574725395918 474.25759578166304 L 699.1454711723327 489.83730041325094 z" fill="#acece5" fill-rule="evenodd"/>
  <path id="imagebot_27" label="Layer 1" d="M 706.0144977900386 316.8339255934954 L 721.0076231699884 318.612957882002 L 706.5803091271966 322.58583825469015 L 709.1432863728404 334.7912164967656 L 700.062965451181 324.8033314511255 L 686.6540392414734 330.5676276947543 L 695.4690672179117 320.42175787797424 L 684.6188949208811 311.77893382876215 L 699.1472243422224 315.4964866491765 L 705.8504394103691 304.39048992618024 L 706.0144977900386 316.8339255934954 z" fill="#acece5" fill-rule="evenodd"/>
  <path id="imagebot_28" label="Layer 1" d="M525.76,668.26L552.891,699.314L514.466,683.805L493.316,719.204L496.1919,677.868L455.9899,668.6921L496.1919,658.6531L492.4956,617.5831L514.4656,652.7151L552.3836,636.5081L525.76,668.26z" transform="translate(-398, -47) matrix(0.29718, 0, 0, 0.49067, 488.9, 69.9422)" fill="#acece5" fill-rule="evenodd"/>
  <path transform="rotate(94.2623, 40.9388, 51.9153) translate(1, -12)" id="imagebot_29" label="Layer 1" d="M 42.45837741526066 61.17623598801954 L 54.25877100636067 62.943725513905875 L 42.90370127586817 66.89082894293927 L 44.92090179258466 79.01701593893705 L 37.774202349093414 69.09393454352042 L 27.220658448222213 74.82083073339916 L 34.15855811906982 64.7407896076598 L 25.618890745419133 56.154042149644866 L 37.053464995178416 59.84747464913438 L 42.329254673806915 48.813536137033736 L 42.45837741526066 61.17623598801954 z" fill="#acece5" fill-rule="evenodd"/>
  <path id="imagebot_30" label="Layer 1" d="M 696.4830244169609 720.6314801352648 L 693.8433880086717 732.2678721647098 L 690.751139133251 720.6508492012634 L 678.5085669495129 721.761221438398 L 688.9353642745579 715.3717968835472 L 684.0086736993871 704.4218041707322 L 693.5451932966239 712.0896895495904 L 702.7428816136095 704.2118299522078 L 698.2098175829512 715.3402734183808 L 708.821128556743 721.4215419144425 L 696.4830244169609 720.6314801352648 z" fill="#acece5" fill-rule="evenodd"/>
 </g>
 <metadata>image/svg+xmlOpenclipartNight Sky with Moon and Stars2011-12-25T05:34:38Night Sky with Moon and Starshttps://openclipart.org/detail/166552/night-sky-with-moon-and-stars-by-navaneethksnavaneethksMoonNightSkyStars</metadata>
</svg>